<?xml version="1.0" encoding="UTF-8"?>
<svg width="128px" height="128px" viewBox="0 0 128 128" version="1.1" xmlns="http://www.w3.org/2000/svg" xmlns:xlink="http://www.w3.org/1999/xlink">
    <g id="Extension-Copy" stroke="none" stroke-width="1" fill="none" fill-rule="evenodd">
        <rect id="Rectangle" stroke="#979797" fill="#000000" fill-rule="nonzero" x="0.5" y="0.5" width="127" height="127"></rect>
        <g id="Group-2" transform="translate(9.000000, 39.000000)" fill="#FFFFFF" fill-rule="nonzero">
            <path d="M29,0 C45.0127828,-0.000115677263 57.9953171,2.6854249 57.9999999,5.99888088 C58.0006195,7.59046843 54.9455124,9.1169095 49.5068613,10.2423576 C44.0682101,11.3678056 36.69159,12.0000555 29,12 C21.30841,12.0000555 13.9317899,11.3678056 8.49313874,10.2423576 C3.05448755,9.1169095 -0.000619538167,7.59046843 9.42362996e-08,5.99888088 C0.00468289814,2.6854249 12.9872172,-0.000115677263 29,0 Z" id="rect4208-path"></path>
            <path d="M57.9031445,8 L57.9031445,27.5447213 C57.9642535,27.7224394 57.9965628,27.9006547 58,28.0789684 C57.9888185,28.2314778 57.9565157,28.3838573 57.9031445,28.5358572 L57.9031445,28.5769542 L57.8936958,28.5769542 C56.8002797,32.1939569 44.1943964,34.9962348 29,35 C21.3088677,35.0000641 13.9326479,34.2709167 8.49407256,32.9729666 C3.05549725,31.6750166 8.08698198e-05,29.9145886 0,28.0789684 C0.0106176273,27.9272712 0.0421320257,27.7756984 0.0944921128,27.6244956 L0.0944921128,8.08460872 C1.27363461,11.6862383 13.8610413,14.4655967 28.9976378,14.4665588 C44.2621061,14.4626796 56.9006525,11.6352632 57.9031445,8 Z" id="rect4208-path"></path>
            <path d="M57.9031445,31 L57.9031445,50.5447213 C57.9642535,50.7224394 57.9965628,50.9006547 58,51.0789684 C57.9888185,51.2314778 57.9565157,51.3838573 57.9031445,51.5358572 L57.9031445,51.5769542 L57.8936958,51.5769542 C56.8002814,55.1939571 44.1943971,57.9962352 29,58 C21.3088674,58.0000643 13.932647,57.270917 8.4940715,55.9729669 C3.05549598,54.6750168 7.99070074e-05,52.9145887 0,51.0789684 C0.0106176246,50.9272712 0.0421320231,50.7756984 0.0944921128,50.6244956 L0.0944921128,31.0846087 C1.27363292,34.6862385 13.8610406,37.4655972 28.9976378,37.4665588 C44.2621068,37.46268 56.9006543,34.6352634 57.9031445,31 Z" id="rect4208-path"></path>
            <path d="M57.9031445,53 L57.9031445,72.5440551 C57.9642535,72.721789 57.9965628,72.9000203 58,73.0783499 C57.9890421,73.2316795 57.9567391,73.3848798 57.9031445,73.5376971 L57.9031445,73.5787966 L57.8936958,73.5787966 C56.7952381,77.1951687 44.1907724,79.9963278 29,80 C21.308868,80.0000645 13.9326479,79.2708522 8.49407227,77.9727861 C3.05549669,76.67472 8.03196025e-05,74.9141345 0,73.0783499 C0.0108389288,72.9274457 0.042353147,72.7766664 0.0944921128,72.6262539 L0.0944921128,53.0822001 C1.26862386,56.6851081 13.8574382,59.4660791 28.9976378,59.467139 C44.2621094,59.4632603 56.9006586,56.6355896 57.9031445,53 Z" id="rect4208-path"></path>
        </g>
        <g id="Group-3" transform="translate(100.500000, 74.000000) rotate(-90.000000) translate(-100.500000, -74.000000) translate(65.500000, 53.500000)" fill-rule="nonzero">
            <path d="M9.52054502,0.5 C4.53863555,0.5 0.5,4.630044 0.5,9.72703262 L0.5,31.2729674 C0.5,36.3689166 4.50797465,40.5 9.52054502,40.5 L60.4794551,40.5 C65.4613643,40.5 69.5,36.369956 69.5,31.2729674 L69.5,9.72703262 C69.5,4.63108338 65.4920255,0.5 60.4794551,0.5 L9.52054502,0.5 Z" id="file-yml-path" fill="#157EFB"></path>
            <polygon id="file-yml-path" fill="#000000" points="19.1 22.6428571 19.1 32.5 15.9 32.5 15.9 22.6428571 9.5 12.7857143 9.5 9.5 12.7 9.5 12.7 12.7857143 17.5 20.1785714 22.3 12.7857143 22.3 9.5 25.5 9.5 25.5 12.7857143"></polygon>
            <polygon id="file-yml-path" fill="#000000" points="36.5 19.3571429 31.7 9.5 30.1 9.5 28.5 9.5 28.5 32.5 31.7 32.5 31.7 16.0714286 34.9 22.6428571 36.5 22.6428571 38.1 22.6428571 41.3 16.0714286 41.3 32.5 44.5 32.5 44.5 9.5 42.9 9.5 41.3 9.5"></polygon>
            <polygon id="file-yml-path" fill="#000000" points="63.5 29.2142857 63.5 32.5 47.5 32.5 47.5 9.5 50.7 9.5 50.7 29.2142857"></polygon>
        </g>
        <g id="Group" transform="translate(18.000000, 16.000000)" fill-rule="nonzero">
            <path id="Line" d="M74,3 L20.5,3 L19,3 L19,-4.56200734e-16 L20.5,-4.4408921e-16 L74,-1.21115239e-17 L74,-8 L93,1.5 L74,11 L74,3 Z" fill="#157EFB"></path>
            <path id="Line" d="M19,3 L72.5,3 L74,3 L74,6 L72.5,6 L19,6 L19,14 L-1.42108547e-14,4.5 L19,-5 L19,3 Z" fill="#FFFFFF"></path>
        </g>
    </g>
</svg>
